<svg width="102" height="102" viewBox="0 0 102 102" fill="none" xmlns="http://www.w3.org/2000/svg">
<path d="M101.988 71.7643C101.919 71.7228 101.884 71.6952 101.843 71.6606C101.815 71.6468 101.802 71.5915 101.815 71.5708C101.988 71.2943 101.829 71.0455 101.726 70.8244C101.608 70.5341 101.595 70.2853 101.795 70.0227C101.85 69.9536 101.836 69.8499 101.871 69.7739C101.946 69.6011 101.753 69.5389 101.767 69.4076C101.781 69.2763 101.898 69.1588 101.753 69.0275C101.726 68.9999 101.698 68.91 101.726 68.8824C101.946 68.5783 101.753 68.288 101.712 67.9978C101.684 67.7766 101.539 67.6799 101.305 67.7213C101.105 67.7628 100.926 67.825 100.74 67.8526C99.6085 68.0876 98.4706 68.3157 97.3397 68.523C96.3673 68.7096 95.4087 68.9169 94.4225 68.9584C93.9743 68.9722 93.5329 69.0137 93.0984 69.0483C92.5605 69.1035 92.0226 69.1381 91.4847 69.2072C90.8296 69.2971 90.1882 69.38 89.5262 69.3938C88.9607 69.4076 88.409 69.4353 87.8435 69.4629C86.2711 69.5182 84.6781 69.5389 83.1057 69.4491C81.7541 69.3731 80.4162 69.2003 79.0783 68.9861C78.3818 68.8686 77.6853 68.7234 76.9749 68.5921C75.9405 68.3917 74.8992 68.2397 73.9199 67.8181C72.8717 67.3689 71.7958 67.0164 70.7407 66.5672C69.5614 66.0558 68.3891 65.4753 67.2788 64.8325C66.5202 64.3695 65.7547 63.9272 65.0237 63.4227C64.341 62.9458 63.6996 62.4206 63.0583 61.8953C62.6928 61.5913 62.3341 61.2526 62.01 60.9071C61.1411 60.0155 60.4239 59.0135 59.6998 58.0114C59.3687 57.5621 59.0308 57.1406 58.7826 56.6706C58.0378 55.3437 57.3895 53.9615 56.8654 52.5171C56.7482 52.1784 56.6447 51.8329 56.5344 51.4943C56.5344 51.4943 65.4099 44.521 70.0235 31.0445C70.1614 30.6921 70.2924 30.3327 70.4442 29.9872C70.9545 28.8399 71.3614 27.6581 71.7682 26.4764C71.8855 26.0963 71.9545 25.6885 72.0579 25.2946C72.2924 24.3892 72.5199 23.4632 72.7682 22.544C72.8854 22.0602 73.0579 21.5834 73.1613 21.0996C73.4096 19.8763 73.6234 18.6393 73.8578 17.4022C74.1957 15.6261 74.3337 13.8361 74.4647 12.0461C74.5544 10.7538 74.4371 9.45451 74.5957 8.17597V8.05849C74.5819 7.41576 74.5957 6.77995 74.5819 6.15104C74.5681 5.63963 74.5406 5.13512 74.5061 4.63753C74.4509 3.76674 74.5061 2.90286 74.3337 2.0459C74.2923 1.83857 74.2578 1.6105 74.2647 1.41699C74.3061 1.07835 74.2095 0.760447 74.1475 0.44254C74.0923 0.1039 73.913 -0.0343208 73.582 0.00714529C72.8372 0.0762555 72.0855 0.152277 71.3476 0.24212C70.8097 0.318141 70.2856 0.345785 69.7476 0.318141C69.327 0.304319 68.8925 0.345785 68.4856 0.421807C67.9753 0.497828 67.7132 0.905578 67.7615 1.4239C67.8029 1.83166 67.8305 2.23941 67.9063 2.63333C68.0512 3.43501 68.1132 4.23669 68.127 5.05219C68.127 5.14203 68.1132 5.25261 68.127 5.34245C68.2443 6.33073 68.2443 7.30518 68.2305 8.28655C68.1891 10.4704 68.1615 12.6543 67.865 14.8244C67.7201 15.9025 67.5891 16.9668 67.3546 18.0242C67.0788 19.2336 66.8305 20.4292 66.5271 21.6386C66.2236 22.8895 65.8857 24.1404 65.4788 25.3637C65.403 25.5848 65.334 25.8129 65.2444 26.0202C64.8927 26.8357 64.603 27.6651 64.2306 28.4806C63.9961 28.992 63.7824 29.5449 63.6169 30.0839C63.4858 30.4778 63.2789 30.8234 63.1065 31.1897C62.8445 31.7287 62.5686 32.254 62.3479 32.8069C62.0859 33.4772 61.7066 34.0854 61.3618 34.7005C60.9549 35.44 60.4928 36.1241 60.086 36.8429C59.5618 37.8035 59.0101 38.7642 58.3895 39.6695C58.1274 40.0773 57.8516 40.4712 57.5895 40.8789C57.0102 41.8119 56.3964 42.7173 55.7275 43.5881C55.0586 44.445 54.169 45.3642 52.9069 46.5736C52.6656 46.8017 52.4863 46.9952 52.2932 47.1887C50.6587 48.8128 49.1692 49.4624 48.7002 49.6352C47.4727 50.0429 46.2244 50.4023 44.9555 50.6718L43.7763 50.9068C42.7556 51.128 41.7281 51.2869 40.6936 51.356C39.5902 51.4321 38.4868 51.4735 37.3834 51.4873C35.4042 51.5288 33.4181 51.4735 31.4388 51.2247C31.0595 51.1833 30.6802 51.1556 30.294 51.1072C29.4113 50.9621 28.5355 50.817 27.6666 50.6718C27.17 50.5958 26.6666 50.5405 26.1839 50.423C24.6322 50.0429 23.0874 49.6214 21.5358 49.2274C20.3151 48.9095 19.1841 48.3705 18.0187 47.9005C17.7152 47.783 17.4256 47.6379 17.1359 47.479C16.4946 47.1127 15.8739 46.7326 15.2464 46.3594C14.9291 46.1728 14.5912 46.0276 14.3016 45.8065C13.7223 45.3711 13.1223 44.9633 12.5016 44.5832C12.1982 44.3828 11.8603 44.217 11.5706 44.0027C11.1362 43.6848 10.7155 43.3462 10.2948 43.0006C9.48107 42.3164 8.66731 41.6461 7.9432 40.8582C7.23289 40.098 6.4743 39.3862 5.70881 38.6743C5.06746 38.08 4.41231 37.5202 3.83302 36.8705C3.62613 36.6217 3.35718 36.4213 3.04685 36.3038C2.99168 36.3453 2.92961 36.3729 2.90202 36.4075C2.82617 36.4973 2.7572 36.5941 2.70203 36.6978C2.30894 37.5133 1.8331 38.2735 1.30898 39.0268C0.915897 39.5935 0.522809 40.174 0.191788 40.7753C-0.00820431 41.107 -0.0840634 41.5009 0.122825 41.881C0.198684 42.0262 0.322817 42.1575 0.453846 42.275C1.34347 43.1043 2.25377 43.9198 3.1296 44.7491C3.75716 45.3434 4.50886 45.7996 5.04677 46.4976C5.07435 46.5391 5.13642 46.5667 5.1778 46.5874C5.62605 46.8501 6.00535 47.1818 6.37085 47.5619C6.70877 47.8383 7.05358 48.1148 7.3915 48.3912C7.90183 48.799 8.40525 49.2205 8.94316 49.6006C9.77072 50.1812 10.6396 50.7202 11.4879 51.2869C12.7085 52.0886 13.943 52.8903 15.2671 53.4985C16.1498 53.8924 17.0394 54.2448 17.929 54.618C18.6117 54.8945 19.3221 55.0534 20.0324 55.2746C21.6047 55.7584 23.2323 56.1039 24.8529 56.4702C25.0391 56.5117 25.2322 56.5462 25.4184 56.5877C26.5494 56.7605 27.6735 56.9194 28.7907 57.1129C30.363 57.3755 31.9698 57.5345 33.5698 57.5967C35.7766 57.6727 37.9903 57.7004 40.2109 57.5414C41.3143 57.4516 42.4039 57.3824 43.4797 57.2028C44.7762 56.9816 46.0796 56.8088 47.3554 56.4909C48.4312 56.2145 49.5209 55.938 50.5691 55.5441C50.8863 55.4266 51.1967 55.2953 51.5553 55.164C51.6587 55.4128 51.7553 55.627 51.8311 55.8344C52.0035 56.2974 52.1621 56.7397 52.3414 57.1889C52.6725 58.0183 53.1966 58.7508 53.5069 59.5802C53.6172 59.8773 53.5897 59.8566 53.7621 60.3818C53.8241 60.5823 53.8517 60.7274 53.8931 60.8587C54.0793 61.5705 54.3138 62.2271 54.4655 62.9527C54.6379 63.7959 54.8586 64.5215 55.0379 65.3439C55.2793 66.4566 55.4379 67.5969 55.493 68.7373C55.493 68.8133 55.5206 68.8962 55.5206 68.9722C55.7551 70.6032 55.9413 72.2342 55.9965 73.8791C56.0516 75.5377 56.1275 77.1963 56.0723 78.8481C56.0585 79.3318 56.0447 79.8225 55.9965 80.2925C55.9068 81.3568 55.7965 82.4073 55.693 83.4646C55.6034 84.3838 55.5206 85.3168 55.3896 86.2429C55.2034 87.6113 54.9827 88.9935 54.7482 90.3618C54.5758 91.3501 54.3965 92.3384 54.1552 93.3059C53.8931 94.4393 53.5483 95.5451 53.2862 96.6716C52.9207 98.2128 52.5207 100.459 52.1759 102H58.3136C58.5619 100.908 58.7757 99.8023 59.0239 98.7104C59.3894 97.183 59.7963 95.6695 60.1687 94.156C60.4446 92.988 60.6928 91.8132 60.8377 90.6314C60.879 90.2651 60.9273 89.8919 60.9825 89.5394C61.1273 88.5788 61.2997 87.632 61.4307 86.6714C61.5204 85.9595 61.548 85.2477 61.6514 84.5428C61.8514 83.1122 61.9824 81.6609 62.0721 80.2165C62.1755 78.3643 62.1617 76.5052 62.0583 74.6669C61.9548 72.8493 61.7824 71.0386 61.6238 69.2348C61.61 68.9999 61.5549 68.7718 61.679 68.523C61.7687 68.5645 61.8514 68.599 61.9273 68.6543C62.6652 69.1035 63.41 69.5459 64.1479 70.0089C65.134 70.624 66.1961 71.1008 67.2305 71.5984C68.2925 72.1098 69.3959 72.5038 70.4993 72.9115C71.5338 73.2778 72.5751 73.6233 73.6234 73.962C74.0026 74.0795 74.4233 74.1071 74.8026 74.2108C75.706 74.4319 76.6163 74.6324 77.5198 74.7775C78.2783 74.895 79.0438 75.0678 79.8024 75.13C80.5472 75.1991 81.2989 75.3166 82.0437 75.3373C82.9471 75.3788 83.8574 75.4824 84.7608 75.4686C85.4574 75.4548 86.1401 75.4686 86.8366 75.4548C87.9124 75.4271 88.9883 75.3788 90.0779 75.3373C90.5882 75.3096 91.1123 75.282 91.6295 75.2474C92.4433 75.1783 93.2433 75.1023 94.057 75.0401C94.3605 75.0125 94.6708 75.0401 94.9742 74.9986C95.788 74.895 96.6155 74.7913 97.4293 74.6462C98.3327 74.4872 99.243 74.2937 100.146 74.1071C100.25 74.0795 100.346 74.0173 100.436 73.962C100.333 73.7616 100.119 73.9067 99.9396 73.7547C100.188 73.6855 100.374 73.6095 100.553 73.5957C101.029 73.5819 101.312 73.2294 101.671 73.0152C101.581 72.7526 101.367 72.8424 101.174 72.7664C101.464 72.5936 101.726 72.4485 101.974 72.3172C102.105 72.096 101.684 71.9371 101.974 71.7366L101.988 71.7643ZM98.8086 74.0933H98.7534V74.0795C98.7534 74.0795 98.7879 74.0864 98.8017 74.0864L98.8086 74.0933ZM98.8086 74.0864V74.0726H98.7603H98.8155V74.0933L98.8086 74.0864ZM99.4223 73.9758H99.4499C99.4499 73.9758 99.4499 73.9689 99.4637 73.9758H99.4292H99.4223Z" fill="black"/>
</svg>
